<?xml version="1.0" encoding="utf-8"?>
<!-- Generator: Adobe Illustrator 23.0.0, SVG Export Plug-In . SVG Version: 6.00 Build 0)  -->
<svg version="1.1" id="Layer_1" xmlns="http://www.w3.org/2000/svg" xmlns:xlink="http://www.w3.org/1999/xlink" x="0px" y="0px"
	 viewBox="0 0 142 194" style="enable-background:new 0 0 142 194;" xml:space="preserve">
<style type="text/css">
	.st0{fill:#CE5260;}
</style>
<g>
	<path class="st0" d="M63.34,165.56c1.61-4.64,3.52-9.21,4.78-13.95c3.1-11.65-0.37-21.88-7.88-30.76
		c-6.99-8.27-14.98-15.72-21.62-24.25c-9.36-12.03-12.86-27.75-4.57-41.33c1.5-2.45,3.29-4.73,5.31-6.78
		c4.15-4.21,9.17-7.45,14.17-10.61c5.85-3.7,11.83-7.37,18.43-9.46c-2.92,6.9-6.74,13.41-8.26,20.83
		c-1.28,6.22-0.97,12.63,1.08,18.65c1.1,3.24,2.66,6.31,4.48,9.2c2.11,3.34,4.81,6.1,7.16,9.24c4.32,4.74,8.52,9.67,12.12,14.95
		c8.55,12.52,9.44,25.61,1.52,38.85C83.57,151.03,74.52,159.37,63.34,165.56z"/>
	<path class="st0" d="M84.17,56.94c0.76,1.13,1.57,2.24,2.43,3.3c5.13,6.35,11.84,11.12,17.51,16.93
		c5.67,5.8,10.83,12.46,13.45,20.23c0.66,1.95,1.15,3.96,1.46,5.99c2.87,19.02-12.52,35.3-28.4,43.08c0.73-1.58,1.33-3.24,2.21-4.73
		c8.27-13.87,8.01-27.76-0.92-40.99c-5.53-8.19-12.43-15.44-18.39-23.36c-10.1-13.41-10.27-28.77-0.8-42.58
		c0.56-0.81,1.09-1.79,1.78-2.47c-0.17,0.17,1.35,4.95,1.43,5.24c0.67,2.69,1.49,5.36,2.46,7.96C79.89,49.54,81.79,53.4,84.17,56.94
		z"/>
	<path class="st0" d="M58.36,165.14c0.91-1.23-1.72-6.93-2.3-8.2c-1.23-2.69-2.9-5.13-4.84-7.36c-4.23-4.88-9.73-8.36-14.44-12.72
		c-6.11-5.67-9.29-13.18-10.01-21.43c-0.54-6.16,0.25-18.32,5.18-22.94c3.62,4.82,7.1,9.67,11.09,14.23
		c4.43,5.07,9.27,9.82,13.53,15c3.93,4.78,7.99,10.18,9.09,16.42C67.35,147.69,64.01,157.48,58.36,165.14z"/>
</g>
</svg>
