<svg width="150" height="50" viewBox="0 0 150 50" fill="none" xmlns="http://www.w3.org/2000/svg">
<g clip-path="url(#clip0_1016_132)">
<path d="M100.661 36.8325C100.661 41.2385 97.0729 44.8263 92.6669 44.8263H49.1729V13.1657C49.1729 8.75966 52.7606 5.17188 57.1667 5.17188H100.661V36.8325Z" fill="white"/>
<path d="M86.4985 28.7127H89.8031C89.8975 28.7127 90.1178 28.6812 90.2122 28.6812C90.8416 28.5553 91.3767 27.9888 91.3767 27.2021C91.3767 26.4467 90.8416 25.8802 90.2122 25.7229C90.1178 25.6914 89.929 25.6914 89.8031 25.6914H86.4985V28.7127Z" fill="url(#paint0_linear_1016_132)"/>
<path d="M89.4254 7.84766C86.2782 7.84766 83.6975 10.3969 83.6975 13.5755V19.5237H91.7857C91.9746 19.5237 92.1949 19.5237 92.3522 19.5552C94.1776 19.6496 95.5309 20.5937 95.5309 22.2303C95.5309 23.5206 94.6182 24.6221 92.9187 24.8424V24.9054C94.7756 25.0313 96.1918 26.0698 96.1918 27.6749C96.1918 29.4058 94.6182 30.5388 92.5411 30.5388H83.666V42.1834H92.069C95.2162 42.1834 97.7968 39.6342 97.7968 36.4555V7.84766H89.4254Z" fill="url(#paint1_linear_1016_132)"/>
<path d="M90.9675 22.6074C90.9675 21.8521 90.4325 21.3485 89.8031 21.2541C89.7401 21.2541 89.5828 21.2227 89.4884 21.2227H86.4985V23.9922H89.4884C89.5828 23.9922 89.7716 23.9922 89.8031 23.9607C90.4325 23.8663 90.9675 23.3627 90.9675 22.6074Z" fill="url(#paint2_linear_1016_132)"/>
<path d="M57.7647 7.84766C54.6175 7.84766 52.0368 10.3969 52.0368 13.5755V27.7064C53.6419 28.4931 55.3099 28.9967 56.9779 28.9967C58.9606 28.9967 60.0307 27.8008 60.0307 26.1642V19.4922H64.9403V26.1328C64.9403 28.7134 63.3352 30.8221 57.8906 30.8221C54.5861 30.8221 52.0054 30.0982 52.0054 30.0982V42.1519H60.4083C63.5555 42.1519 66.1362 39.6027 66.1362 36.424V7.84766H57.7647Z" fill="url(#paint3_linear_1016_132)"/>
<path d="M73.5951 7.84766C70.4479 7.84766 67.8672 10.3969 67.8672 13.5755V21.0658C69.3149 19.8384 71.8326 19.0516 75.8925 19.2404C78.064 19.3349 80.393 19.9328 80.393 19.9328V22.3561C79.2285 21.7582 77.8437 21.2232 76.0499 21.0973C72.9656 20.877 71.1088 22.3876 71.1088 25.0312C71.1088 27.7064 72.9656 29.217 76.0499 28.9652C77.8437 28.8393 79.2285 28.2728 80.393 27.7064V30.1297C80.393 30.1297 78.0955 30.7276 75.8925 30.8221C71.8326 31.0109 69.3149 30.2241 67.8672 28.9967V42.2148H76.2702C79.4173 42.2148 81.998 39.6656 81.998 36.487V7.84766H73.5951Z" fill="url(#paint4_linear_1016_132)"/>
</g>
<defs>
<linearGradient id="paint0_linear_1016_132" x1="83.6923" y1="27.2058" x2="97.8349" y2="27.2058" gradientUnits="userSpaceOnUse">
<stop stop-color="#007940"/>
<stop offset="0.2285" stop-color="#00873F"/>
<stop offset="0.7433" stop-color="#40A737"/>
<stop offset="1" stop-color="#5CB531"/>
</linearGradient>
<linearGradient id="paint1_linear_1016_132" x1="83.6918" y1="25.0018" x2="97.8355" y2="25.0018" gradientUnits="userSpaceOnUse">
<stop stop-color="#007940"/>
<stop offset="0.2285" stop-color="#00873F"/>
<stop offset="0.7433" stop-color="#40A737"/>
<stop offset="1" stop-color="#5CB531"/>
</linearGradient>
<linearGradient id="paint2_linear_1016_132" x1="83.6919" y1="22.6035" x2="97.8351" y2="22.6035" gradientUnits="userSpaceOnUse">
<stop stop-color="#007940"/>
<stop offset="0.2285" stop-color="#00873F"/>
<stop offset="0.7433" stop-color="#40A737"/>
<stop offset="1" stop-color="#5CB531"/>
</linearGradient>
<linearGradient id="paint3_linear_1016_132" x1="52.0302" y1="25.0018" x2="66.3917" y2="25.0018" gradientUnits="userSpaceOnUse">
<stop stop-color="#1F286F"/>
<stop offset="0.4751" stop-color="#004E94"/>
<stop offset="0.8261" stop-color="#0066B1"/>
<stop offset="1" stop-color="#006FBC"/>
</linearGradient>
<linearGradient id="paint4_linear_1016_132" x1="67.7858" y1="25.0018" x2="81.7342" y2="25.0018" gradientUnits="userSpaceOnUse">
<stop stop-color="#6C2C2F"/>
<stop offset="0.1735" stop-color="#882730"/>
<stop offset="0.5731" stop-color="#BE1833"/>
<stop offset="0.8585" stop-color="#DC0436"/>
<stop offset="1" stop-color="#E60039"/>
</linearGradient>
<clipPath id="clip0_1016_132">
<rect width="51.8334" height="40" fill="white" transform="translate(49 5)"/>
</clipPath>
</defs>
</svg>
