<svg width="150" height="50" viewBox="0 0 150 50" fill="none" xmlns="http://www.w3.org/2000/svg">
<g clip-path="url(#clip0_1016_128)">
<path d="M82.5516 11.8965H67.9683V38.1031H82.5516V11.8965Z" fill="#FF5F00"/>
<path d="M68.8944 25.0006C68.8921 22.4767 69.464 19.9854 70.5669 17.7152C71.6698 15.4451 73.2747 13.4556 75.2601 11.8973C72.8014 9.96475 69.8486 8.76291 66.7392 8.42917C63.6298 8.09544 60.4892 8.64325 57.6764 10.01C54.8636 11.3768 52.4921 13.5074 50.8329 16.1583C49.1738 18.8092 48.2939 21.8733 48.2939 25.0006C48.2939 28.1279 49.1738 31.1921 50.8329 33.843C52.4921 36.4938 54.8636 38.6244 57.6764 39.9912C60.4892 41.358 63.6298 41.9058 66.7392 41.5721C69.8486 41.2383 72.8014 40.0365 75.2601 38.1039C73.2747 36.5457 71.6698 34.5562 70.5669 32.286C69.4641 30.0158 68.8921 27.5245 68.8944 25.0006Z" fill="#EB001B"/>
<path d="M102.226 25.0006C102.226 28.1279 101.346 31.192 99.6869 33.8429C98.0278 36.4938 95.6564 38.6244 92.8436 39.9912C90.0309 41.358 86.8904 41.9058 83.781 41.5721C80.6716 41.2383 77.7189 40.0365 75.2603 38.1039C77.2439 36.5441 78.8476 34.5543 79.9503 32.2845C81.0529 30.0147 81.6259 27.5241 81.6259 25.0006C81.6259 22.4771 81.0529 19.9866 79.9503 17.7168C78.8476 15.447 77.2439 13.4571 75.2603 11.8973C77.7189 9.96474 80.6716 8.7629 83.781 8.42917C86.8904 8.09544 90.0309 8.64328 92.8436 10.0101C95.6564 11.3769 98.0278 13.5075 99.6869 16.1583C101.346 18.8092 102.226 21.8734 102.226 25.0006Z" fill="#F79E1B"/>
<path d="M100.635 35.3285V34.792H100.852V34.6827H100.301V34.792H100.517V35.3285H100.635ZM101.705 35.3285V34.6816H101.536L101.342 35.1266L101.148 34.6816H100.979V35.3285H101.098V34.8406L101.28 35.2613H101.404L101.586 34.8395V35.3285H101.705Z" fill="#F79E1B"/>
</g>
<defs>
<clipPath id="clip0_1016_128">
<rect width="70.5587" height="50" fill="white" transform="translate(40)"/>
</clipPath>
</defs>
</svg>
