<svg width="32" height="32" viewBox="0 0 32 32" fill="none" xmlns="http://www.w3.org/2000/svg">
<path d="M24.85 11C25.9 11 26.75 11.85 26.75 12.9V25.1C26.75 26.15 25.9 27 24.85 27H4.9C3.85 27 3 26.15 3 25.1V12.9C3 11.85 3.85 11 4.9 11H24.85ZM24.85 12H4.9C4.441 12 4.063 12.343 4.007 12.787L4 12.9V25.1C4 25.559 4.343 25.937 4.787 25.993L4.9 26H24.85C25.309 26 25.687 25.657 25.743 25.213L25.75 25.1V12.9C25.75 12.441 25.407 12.063 24.963 12.007L24.85 12Z" fill="#242424"/>
<path fill-rule="evenodd" clip-rule="evenodd" d="M27.786 22C27.483 22 27.237 21.753 27.237 21.447C27.237 21.141 27.483 21 27.787 21H28.354C28.949 21 29.587 20.402 29.587 19.82V9.213C29.587 8.603 28.96 7.965 28.354 7.965H10.864C10.276 7.965 9.65 8.603 9.65 9.213V9.743C9.65 10.048 9.552 10.295 9.25 10.295C8.946 10.295 8.7 10.048 8.7 9.742V9.212C8.7 7.993 9.67 7 10.864 7H28.354C29.564 7 30.55 7.992 30.55 9.212V19.82C30.55 21.001 29.544 21.999 28.354 21.999H27.786V22ZM11.38 21H6.32C6.144 21 6 20.777 6 20.5C6 20.223 6.144 20 6.32 20H11.38C11.556 20 11.7 20.223 11.7 20.5C11.7 20.777 11.556 21 11.38 21ZM8.599 23H6.25C6.112 23 6 22.777 6 22.5C6 22.223 6.112 22 6.251 22H8.6C8.739 22 8.851 22.223 8.851 22.5C8.851 22.777 8.738 23 8.599 23Z" fill="#242424"/>
<path fill-rule="evenodd" clip-rule="evenodd" d="M16.7749 24C15.4879 24 14.3999 22.856 14.3999 21.5C14.3999 20.146 15.4879 19 16.7749 19C18.0849 19 19.1499 20.122 19.1499 21.5C19.1499 22.88 18.0849 24 16.7749 24Z" fill="#0D5CB6"/>
<path opacity="0.5" fill-rule="evenodd" clip-rule="evenodd" d="M20.5747 24C19.2877 24 18.1997 22.856 18.1997 21.5C18.1997 20.146 19.2877 19 20.5747 19C21.8847 19 22.9497 20.122 22.9497 21.5C22.9497 22.88 21.8847 24 20.5747 24Z" fill="#0D5CB6"/>
</svg>
