<svg width="19" height="18" viewBox="0 0 19 18" fill="none" xmlns="http://www.w3.org/2000/svg">
<path d="M17.9761 9C17.9761 13.5563 14.2824 17.25 9.72607 17.25C5.16972 17.25 1.47607 13.5563 1.47607 9C1.47607 4.44365 5.16972 0.75 9.72607 0.75C14.2824 0.75 17.9761 4.44365 17.9761 9Z" stroke="#D0600F" stroke-width="1.5"/>
<path d="M9.62573 5C9.62573 6.95262 9.62573 8.04738 9.62573 10" stroke="#D0600F" stroke-width="1.5" stroke-linecap="round"/>
<path fill-rule="evenodd" clip-rule="evenodd" d="M9.62571 14C10.1226 14 10.5253 13.5523 10.5253 13C10.5253 12.4477 10.1226 12 9.62571 12C9.12885 12 8.72607 12.4477 8.72607 13C8.72607 13.5523 9.12885 14 9.62571 14Z" fill="#D0600F"/>
</svg>
