<svg width="21" height="17" viewBox="0 0 21 17" fill="none" xmlns="http://www.w3.org/2000/svg">
<path d="M19.2874 16.8224H1.86324C1.52736 16.8224 1.21699 16.6539 1.04905 16.3804C0.881109 16.1069 0.881111 15.77 1.04905 15.4965L9.76068 1.35281C9.92875 1.07976 10.2389 0.911621 10.5744 0.911621C10.9099 0.911621 11.22 1.07976 11.3881 1.35281L20.0997 15.4965C20.2676 15.7698 20.2677 16.1066 20.1 16.38C19.9323 16.6535 19.6222 16.8221 19.2865 16.8224H19.2874ZM10.5758 3.56275L3.49538 15.0545H17.6581L10.5758 3.56275ZM11.5113 11.5194H9.63093V7.09866H11.5113V11.5194Z" fill="#D0600F"/>
<path d="M9.63564 12.4043H11.516V14.1723H9.63564V12.4043Z" fill="#D0600F"/>
</svg>
